:SAMPLES-PER-SECOND 30
:FULLY-SPECIFIED
:DEGREES
424
root  -39.6439 39.1555 1.82682 -165.133 -83.7259 172.002
RightUpLeg  -35.617 -15.8 3.38088
RightLeg  34.9317 -1.084 -1.06953
RightFoot  0.0290381 0.178611 -1.74985
RightToes  2.91037e-010 0 -3.6325e-017
Spine  67.0694 -2.24672 4.95191
Spine1  11.5693 2.38382 -3.42927
HEad  -45.7661 -5.63982 -6.54553
LeftShoulder1  10.3981 -28.6494 -25.8883
LeftArm  -27.7527 -61.6489 -17.5016
LeftForeArm  43.9455 -0.441122 -4.27057
LeftHand  -0.244104 0.0205437 5.32207
RightShoulder  4.28781 17.6399 13.2959
RightArm  -25.2465 60.5266 22.7287
RightForeArm  19.814 2.39644 4.41115
RightHand  -0.837844 0.420317 -16.769
LeftUpLeg  -34.1596 22.8278 -10.3427
LeftLeg  22.9669 2.48654 1.48855
LeftFoot  1.72099 -0.946781 8.16412
LeftToes  -1.10052e-010 1.3781e-010 -2.1811e-011
425
root  -39.7158 39.3453 1.87169 -163.797 -83.4088 167.537
RightUpLeg  -31.636 -12.3932 -0.114007
RightLeg  35.5023 0.181848 -0.121537
RightFoot  -0.583659 -0.0272498 0.245885
RightToes  2.91037e-010 0 -3.6325e-017
Spine  65.4485 -3.80079 4.88559
Spine1  11.957 2.16253 -7.83282
HEad  -47.4399 -5.5878 -6.13875
LeftShoulder1  9.4146 -27.2618 -24.1783
LeftArm  -22.2144 -54.2013 -25.2114
LeftForeArm  41.4546 -0.384604 -3.95559
LeftHand  -0.244104 0.0205437 5.32207
RightShoulder  5.63892 17.4369 20.4998
RightArm  -19.3946 56.6529 26.8791
RightForeArm  19.0711 2.09479 5.36528
RightHand  -0.948858 1.03471 -17.192
LeftUpLeg  -29.565 24.2716 -9.69502
LeftLeg  21.372 1.92846 1.16969
LeftFoot  1.96336 -0.965944 8.16507
LeftToes  -1.10052e-010 1.3781e-010 -2.1811e-011
426
root  -39.8423 39.503 1.83827 -161.9 -83.2307 162.937
RightUpLeg  -27.6765 -8.7955 -2.87542
RightLeg  35.9734 -0.619718 -0.745297
RightFoot  -3.2831 -0.00614479 -0.289305
RightToes  2.91037e-010 0 -3.6325e-017
Spine  63.5058 -3.36245 4.12788
Spine1  11.3899 1.743 -7.2445
HEad  -47.1477 -4.12106 -7.33616
LeftShoulder1  9.98103 -25.8955 -27.6449
LeftArm  -18.9415 -46.0801 -27.5009
LeftForeArm  41.8427 -0.649674 -4.25089
LeftHand  -0.244104 0.0205437 5.32207
RightShoulder  6.28742 17.6538 23.4605
RightArm  -16.3455 50.0787 29.7717
RightForeArm  18.6275 2.22586 5.52993
RightHand  -1.07969 1.78031 -17.5613
LeftUpLeg  -25.3759 25.0637 -8.83276
LeftLeg  19.9962 1.71738 1.00918
LeftFoot  2.00419 -0.907203 7.63826
LeftToes  -1.10052e-010 1.3781e-010 -2.1811e-011
427
root  -40.0133 39.6411 1.72674 -158.704 -83.2794 157.537
RightUpLeg  -23.2812 -6.25497 -4.83366
RightLeg  35.3318 -3.47746 -2.88852
RightFoot  -6.33696 0.00120607 -0.926127
RightToes  2.91037e-010 0 -3.6325e-017
Spine  61.0315 -3.12427 3.89989
Spine1  10.5492 1.63959 -7.31762
HEad  -46.0143 -2.91778 -7.44434
LeftShoulder1  10.4619 -25.2817 -30.1221
LeftArm  -16.9523 -37.2817 -27.6261
LeftForeArm  43.869 -0.986346 -4.36442
LeftHand  -0.244104 0.0205437 5.32207
RightShoulder  7.01734 17.4247 27.4507
RightArm  -16.151 42.6701 29.1999
RightForeArm  17.9886 2.60094 5.33038
RightHand  -1.09085 1.97894 -17.2705
LeftUpLeg  -21.5578 25.1074 -7.83552
LeftLeg  18.5429 1.76477 0.656358
LeftFoot  2.14204 -0.865945 7.20507
LeftToes  -1.10052e-010 1.3781e-010 -2.1811e-011
428
root  -40.2066 39.7599 1.54707 -153.534 -83.574 150.665
RightUpLeg  -18.5871 -4.9683 -6.19933
RightLeg  33.1425 -6.29292 -4.65291
RightFoot  -8.44622 -0.0659784 0.389045
RightToes  2.91037e-010 0 -3.6325e-017
Spine  57.9905 -2.55432 3.39086
Spine1  10.3445 1.34594 -6.21449
HEad  -44.9401 -1.76875 -7.64175
LeftShoulder1  10.8494 -23.9598 -33.3241
LeftArm  -15.9767 -29.5957 -24.9359
LeftForeArm  44.7927 -1.32896 -4.51838
LeftHand  -0.244104 0.0205437 5.32207
RightShoulder  7.27048 16.7537 29.8706
RightArm  -17.7012 35.7114 27.5317
RightForeArm  16.5624 2.81451 4.78522
RightHand  -1.01775 1.72111 -16.7041
LeftUpLeg  -18.2562 23.9615 -6.70018
LeftLeg  17.2596 2.6206 0.171291
LeftFoot  2.42007 -0.852446 6.93376
LeftToes  -1.10052e-010 1.3781e-010 -2.1811e-011
429
root  -40.4041 39.8768 1.3221 -149.493 -84.0965 145.564
RightUpLeg  -14.6718 -4.65954 -6.62023
RightLeg  30.1235 -7.39391 -4.8578
RightFoot  -9.45074 -0.0992809 2.01709
RightToes  2.91037e-010 0 -3.6325e-017
Spine  54.5166 -2.07294 3.21051
Spine1  10.0231 1.15594 -5.04607
HEad  -43.3966 -0.774152 -7.71021
LeftShoulder1  10.9519 -22.508 -35.9095
LeftArm  -15.8796 -22.3646 -21.2257
LeftForeArm  43.4367 -1.70966 -4.38197
LeftHand  -0.244104 0.0205437 5.32207
RightShoulder  7.38603 16.0777 31.7332
RightArm  -19.6421 28.7836 24.3301
RightForeArm  13.5288 3.10514 4.34258
RightHand  -0.968955 1.49223 -16.4309
LeftUpLeg  -16.0147 22.7211 -5.70376
LeftLeg  16.3469 3.31088 -0.0395452
LeftFoot  2.68948 -0.80809 6.42703
LeftToes  -1.10052e-010 1.3781e-010 -2.1811e-011
